<svg width="56" height="53" viewBox="0 0 56 53" fill="none" xmlns="http://www.w3.org/2000/svg">
<path id="Vector" d="M29.1003 21.0031L45.5 26.8602V50.7531C45.5 51.2173 45.3156 51.6624 44.9874 51.9906C44.6592 52.3188 44.2141 52.5031 43.75 52.5031H36.75C36.2859 52.5031 35.8408 52.3188 35.5126 51.9906C35.1844 51.6624 35 51.2173 35 50.7531V38.5031H17.5V50.7531C17.5 51.2173 17.3156 51.6624 16.9874 51.9906C16.6592 52.3188 16.2141 52.5031 15.75 52.5031H8.75C8.28587 52.5031 7.84075 52.3188 7.51256 51.9906C7.18437 51.6624 7 51.2173 7 50.7531V27.3567C2.93563 25.9075 0 22.0597 0 17.5031C0 16.5749 0.368749 15.6846 1.02513 15.0283C1.6815 14.3719 2.57174 14.0031 3.5 14.0031C4.42826 14.0031 5.3185 14.3719 5.97487 15.0283C6.63125 15.6846 7 16.5749 7 17.5031C7.00173 18.4309 7.37104 19.3201 8.02704 19.9761C8.68304 20.6321 9.57228 21.0014 10.5 21.0031H29.1003ZM56 8.75313V12.2531C56 14.1096 55.2625 15.8901 53.9497 17.2029C52.637 18.5156 50.8565 19.2531 49 19.2531H45.5V23.1447L31.5 18.1452V1.75313C31.5 0.194532 33.3834 -0.586405 34.487 0.516095L37.4708 3.50313H43.3366C44.5298 3.50313 45.9342 4.36938 46.4669 5.43797L47.25 7.00313H54.25C54.7141 7.00313 55.1592 7.1875 55.4874 7.51569C55.8156 7.84388 56 8.289 56 8.75313ZM43.75 8.75313C43.75 8.40701 43.6474 8.06866 43.4551 7.78088C43.2628 7.49309 42.9895 7.26879 42.6697 7.13634C42.3499 7.00388 41.9981 6.96923 41.6586 7.03675C41.3191 7.10428 41.0073 7.27095 40.7626 7.51569C40.5178 7.76043 40.3512 8.07225 40.2836 8.41172C40.2161 8.75118 40.2508 9.10305 40.3832 9.42282C40.5157 9.74259 40.74 10.0159 41.0278 10.2082C41.3155 10.4005 41.6539 10.5031 42 10.5031C42.4641 10.5031 42.9092 10.3188 43.2374 9.99056C43.5656 9.66237 43.75 9.21725 43.75 8.75313Z" fill="black"/>
</svg>
