<svg width="361" height="82" viewBox="0 0 361 82" fill="none" xmlns="http://www.w3.org/2000/svg">
<path d="M9.62125 13.2749C10.4087 12.0503 11.294 11.074 12.2772 10.3461C13.275 9.62757 14.3176 9.14391 15.4049 8.8951C16.4922 8.64629 17.5784 8.62347 18.6636 8.82666C19.7727 9.02464 20.8157 9.43767 21.7926 10.0658C22.784 10.7032 23.5926 11.4807 24.2184 12.3983C24.8536 13.3013 25.2837 14.2991 25.5085 15.3916C25.7334 16.4841 25.7187 17.6287 25.4645 18.8253C25.2248 20.0313 24.7113 21.2466 23.9238 22.4713C23.1364 23.696 22.2437 24.6676 21.246 25.3861C20.2628 26.114 19.2275 26.6023 18.1402 26.8511C17.0529 27.1 15.962 27.1301 14.8674 26.9415C13.7822 26.7383 12.7512 26.3226 11.7744 25.6945C10.783 25.0571 9.96237 24.2822 9.31258 23.3698C8.68675 22.4522 8.2614 21.4472 8.03655 20.3546C7.81169 19.2621 7.81909 18.1129 8.05873 16.9069C8.31296 15.7103 8.8338 14.4996 9.62125 13.2749ZM13.186 15.567C12.6797 16.3543 12.3266 17.0958 12.1266 17.7915C11.9411 18.4965 11.8822 19.149 11.9499 19.7489C12.0175 20.3488 12.2091 20.8841 12.5246 21.3549C12.8401 21.8256 13.253 22.2251 13.7633 22.5532C14.2736 22.8813 14.8084 23.0912 15.3676 23.1829C15.9269 23.2746 16.4935 23.2267 17.0673 23.0393C17.6412 22.8519 18.2031 22.5228 18.753 22.0522C19.3175 21.5908 19.8529 20.9665 20.3591 20.1792C20.8653 19.3919 21.2112 18.6458 21.3966 17.9407C21.5966 17.245 21.6628 16.5973 21.5952 15.9974C21.5275 15.3975 21.336 14.8622 21.0204 14.3914C20.7049 13.9206 20.292 13.5212 19.7817 13.1931C19.2714 12.865 18.7367 12.6551 18.1774 12.5634C17.6182 12.4717 17.0516 12.5195 16.4778 12.7069C15.9039 12.8943 15.3347 13.2187 14.7702 13.68C14.2203 14.1507 13.6922 14.7797 13.186 15.567Z" fill="black"/>
<path d="M29.161 29.9016L33.1883 22.4435L36.6199 24.2966L32.8767 31.2285C32.4732 31.9758 32.348 32.6272 32.5011 33.1827C32.6777 33.7311 33.0634 34.1659 33.6583 34.4871C34.1158 34.7342 34.6234 34.8704 35.181 34.8957C35.7538 34.9293 36.331 34.8272 36.9124 34.5896L35.6893 36.8545C34.8706 37.2398 34.0374 37.4694 33.1897 37.5436C32.3503 37.6024 31.5188 37.4095 30.6952 36.9648C29.9936 36.5859 29.4172 36.0482 28.9661 35.3515C28.5384 34.6478 28.3199 33.8304 28.3104 32.8995C28.3009 31.9685 28.5845 30.9692 29.161 29.9016ZM34.7555 38.8027L35.5562 36.2803L40.8065 26.5573L44.2382 28.4104L39.2967 37.5614C39.1237 37.8817 38.9749 38.1756 38.8501 38.4431C38.7488 38.7036 38.6381 39.0181 38.5179 39.3866L38.0956 40.6064L34.7555 38.8027Z" fill="black"/>
<path d="M51.8504 32.1558L55.2954 33.7501L54.5971 36.4351L50.0107 46.3453L46.4714 44.7073L50.8393 35.269C50.9922 34.9387 51.1112 34.6404 51.1962 34.3741C51.3042 34.0994 51.4068 33.7745 51.5041 33.3993L51.8504 32.1558ZM53.2385 38.4421L54.265 36.2241C55.1458 35.6003 56.0571 35.2199 56.9991 35.0829C57.9484 34.9301 58.8478 35.0503 59.6972 35.4434L58.0811 38.9356C57.153 38.5061 56.327 38.2479 55.6031 38.1612C54.895 38.0818 54.1068 38.1754 53.2385 38.4421Z" fill="black"/>
<path d="M76.5692 42.6956L80.1549 43.9415L79.7682 46.5596L74.6053 61.4182L70.7507 60.6294L75.8709 45.8936C75.9904 45.5497 76.0792 45.2411 76.1375 44.9678C76.2179 44.6838 76.2879 44.3503 76.3475 43.9673L76.5692 42.6956ZM76.7588 51.1015L78.0785 51.4224C77.8453 52.0937 77.7337 52.6789 77.7438 53.1778C77.7703 53.6825 77.9021 54.0953 78.1393 54.4162C78.3928 54.7429 78.7324 54.9801 79.1581 55.128C79.944 55.4011 80.6988 55.3148 81.4226 54.8689C82.1684 54.4124 82.7404 53.6111 83.1387 52.465C83.4231 51.6464 83.561 50.9327 83.5522 50.3242C83.5435 49.7156 83.4045 49.2177 83.1354 48.8306C82.8662 48.4435 82.4942 48.1674 82.0193 48.0024C81.5282 47.8317 80.9861 47.781 80.3932 47.8503C79.8003 47.9195 79.2359 48.1179 78.7 48.4455L79.5449 46.0141C80.275 45.4971 81.0497 45.1424 81.8689 44.9499C82.7102 44.7468 83.5565 44.7932 84.4079 45.089C85.2757 45.3905 85.9812 45.9476 86.5246 46.7603C87.068 47.573 87.3843 48.5637 87.4737 49.7325C87.5687 50.8848 87.3744 52.1569 86.8909 53.5486C86.3902 54.9894 85.729 56.1267 84.9071 56.9605C84.0853 57.7943 83.174 58.3309 82.1733 58.5704C81.1783 58.7935 80.165 58.7258 79.1335 58.3674C78.2821 58.0716 77.6114 57.5725 77.1215 56.8701C76.6315 56.1677 76.3462 55.3254 76.2655 54.3432C76.1904 53.3445 76.3548 52.264 76.7588 51.1015Z" fill="black"/>
<path d="M95.8564 49.0813L99.5105 50.1097L99.2464 52.8715L96.2879 63.3831L92.5338 62.3265L95.3513 52.3154C95.45 51.965 95.5202 51.6517 95.5619 51.3753C95.6251 51.087 95.6749 50.7499 95.7115 50.364L95.8564 49.0813ZM98.2229 55.0683L98.885 52.7157C99.6559 51.9603 100.495 51.4403 101.404 51.1558C102.317 50.8546 103.224 50.8308 104.125 51.0843L103.082 54.7884C102.098 54.5114 101.242 54.3874 100.513 54.4164C99.8014 54.4502 99.038 54.6675 98.2229 55.0683Z" fill="black"/>
<path d="M108.63 59.6487C108.943 58.2091 109.492 57.0335 110.275 56.122C111.063 55.1935 112.009 54.5567 113.113 54.2116C114.237 53.8532 115.435 53.8123 116.705 54.0887C117.992 54.3688 119.064 54.9037 119.921 55.6934C120.782 56.4661 121.377 57.4383 121.708 58.61C122.042 59.7648 122.052 61.062 121.739 62.5016C121.429 63.9243 120.881 65.0999 120.093 66.0284C119.31 66.9399 118.364 67.5767 117.256 67.9387C116.152 68.2839 114.957 68.3164 113.67 68.0362C112.399 67.7598 111.325 67.2334 110.448 66.457C109.591 65.6674 108.995 64.6951 108.661 63.5404C108.331 62.3686 108.32 61.0714 108.63 59.6487ZM112.491 60.4891C112.296 61.3868 112.246 62.1475 112.341 62.7713C112.436 63.395 112.657 63.8866 113.004 64.2461C113.352 64.6055 113.797 64.8442 114.338 64.9622C114.88 65.0801 115.384 65.0479 115.85 64.8653C116.315 64.6828 116.721 64.3276 117.066 63.7996C117.412 63.2717 117.682 62.5589 117.877 61.6612C118.073 60.7636 118.123 60.0029 118.028 59.3791C117.933 58.7553 117.712 58.2637 117.365 57.9043C117.021 57.5279 116.578 57.2807 116.036 57.1628C115.494 57.0448 114.988 57.0856 114.519 57.285C114.054 57.4676 113.648 57.8228 113.303 58.3507C112.957 58.8787 112.687 59.5915 112.491 60.4891Z" fill="black"/>
<path d="M130.277 57.2477L134.04 57.7454L134.189 60.3878L132.741 71.3424L128.874 70.831L130.238 60.5208C130.285 60.1599 130.31 59.8398 130.312 59.5603C130.334 59.2659 130.335 58.9251 130.316 58.538L130.277 57.2477ZM133.523 62.4502L133.861 59.8984C134.454 59.2426 135.142 58.7391 135.923 58.3877C136.723 58.0215 137.561 57.8963 138.437 58.0122C139.228 58.1168 139.923 58.4099 140.524 58.8914C141.144 59.3581 141.6 60.0128 141.89 60.8555C142.198 61.7005 142.274 62.7159 142.117 63.9015L140.989 72.4332L137.122 71.9219L138.172 63.983C138.279 63.1754 138.177 62.5587 137.866 62.1329C137.555 61.7072 137.099 61.4545 136.498 61.375C136.017 61.3113 135.502 61.3657 134.955 61.5381C134.425 61.7128 133.948 62.0168 133.523 62.4502ZM141.741 60.9931C142.148 60.5575 142.6 60.1801 143.097 59.8612C143.611 59.5445 144.157 59.3194 144.734 59.1859C145.331 59.0375 145.938 59.0043 146.557 59.0861C147.364 59.1929 148.086 59.4894 148.721 59.9755C149.358 60.4444 149.831 61.1014 150.139 61.9464C150.447 62.7914 150.522 63.8067 150.365 64.9924L149.237 73.5241L145.371 73.0128L146.42 65.0739C146.527 64.2663 146.425 63.6496 146.114 63.2238C145.804 62.798 145.347 62.5454 144.746 62.4658C144.265 62.4022 143.751 62.4566 143.203 62.629C142.673 62.8036 142.196 63.1077 141.771 63.5411L141.741 60.9931Z" fill="black"/>
<path d="M158.842 74.1764L159.684 60.5524L163.576 60.7928L162.735 74.4168L158.842 74.1764ZM159.64 56.6162C159.678 56.0107 159.917 55.5045 160.359 55.0976C160.802 54.6735 161.352 54.4817 162.01 54.5223C162.667 54.5629 163.19 54.8209 163.577 55.2964C163.966 55.7545 164.141 56.2864 164.104 56.8919C164.066 57.4974 163.826 58.0122 163.383 58.4364C162.941 58.8433 162.392 59.0264 161.734 58.9858C161.077 58.9452 160.554 58.6958 160.165 58.2377C159.778 57.7622 159.603 57.2217 159.64 56.6162Z" fill="black"/>
<path d="M170.653 73.8966L172.014 70.8179C172.565 71.1535 173.194 71.4466 173.902 71.6974C174.61 71.9308 175.311 72.0514 176.004 72.0593C176.663 72.0668 177.114 71.9852 177.359 71.8147C177.604 71.6268 177.728 71.4028 177.73 71.1428C177.732 70.9695 177.674 70.8128 177.554 70.6728C177.451 70.533 177.271 70.4009 177.012 70.2766C176.771 70.1525 176.443 70.0188 176.029 69.8754C174.268 69.2487 173.036 68.5673 172.334 67.8313C171.632 67.0779 171.286 66.1813 171.298 65.1414C171.307 64.3441 171.532 63.6272 171.973 62.9909C172.414 62.3372 173.052 61.8244 173.888 61.4525C174.725 61.0807 175.732 60.9015 176.911 60.9149C177.76 60.9245 178.582 61.0379 179.377 61.2549C180.189 61.4721 180.914 61.7404 181.552 62.0597L180.244 65.035C179.727 64.7691 179.14 64.5371 178.484 64.339C177.827 64.1408 177.222 64.0386 176.667 64.0323C176.147 64.0264 175.756 64.0999 175.495 64.253C175.233 64.406 175.1 64.6125 175.098 64.8725C175.096 65.0458 175.146 65.2024 175.248 65.3423C175.368 65.4823 175.566 65.6232 175.841 65.765C176.117 65.9068 176.505 66.0673 177.006 66.2463C178.163 66.6581 179.094 67.0934 179.799 67.5521C180.505 67.9935 181.011 68.4933 181.316 69.0514C181.64 69.5925 181.797 70.227 181.789 70.9549C181.779 71.8042 181.519 72.5466 181.01 73.1822C180.517 73.818 179.818 74.3128 178.912 74.6665C178.024 75.0204 176.974 75.1905 175.76 75.1767C174.755 75.1653 173.812 75.0419 172.931 74.8065C172.067 74.554 171.307 74.2507 170.653 73.8966Z" fill="black"/>
<path d="M188.794 68.2841C188.719 66.7953 188.939 65.4826 189.455 64.3459C189.97 63.2092 190.715 62.3126 191.688 61.6561C192.661 60.9823 193.796 60.6127 195.095 60.5473C196.341 60.4846 197.428 60.7075 198.356 61.2161C199.302 61.7239 200.043 62.4762 200.579 63.4732C201.131 64.4519 201.443 65.6511 201.515 67.0706C201.53 67.3649 201.526 67.6428 201.505 67.9042C201.501 68.1647 201.485 68.3738 201.458 68.5313L191.617 69.027L191.493 66.5601L198.53 66.2057L197.778 67.3109C197.711 65.9779 197.446 65.0194 196.983 64.4353C196.536 63.833 195.932 63.551 195.17 63.5894C194.633 63.6164 194.155 63.7793 193.737 64.0781C193.335 64.376 193.028 64.834 192.817 65.4521C192.605 66.0702 192.523 66.864 192.572 67.8335C192.618 68.751 192.821 69.4957 193.179 70.0677C193.537 70.6225 194.008 71.0239 194.594 71.2721C195.196 71.5195 195.887 71.6235 196.666 71.5843C197.185 71.5581 197.718 71.4618 198.265 71.2954C198.829 71.1109 199.321 70.8952 199.743 70.6483L200.954 73.503C200.345 73.8114 199.656 74.089 198.887 74.336C198.136 74.5821 197.301 74.7283 196.384 74.7745C194.861 74.8512 193.539 74.6314 192.42 74.1151C191.318 73.5978 190.455 72.8429 189.833 71.8503C189.209 70.8404 188.863 69.6517 188.794 68.2841Z" fill="black"/>
<path d="M219.056 61.7322L218.611 58.7754L228.355 57.3092L228.8 60.2659L219.056 61.7322ZM222.252 67.246L220.476 55.4448L224.255 54.3503L226.035 66.1772C226.146 66.9142 226.369 67.4065 226.704 67.654C227.039 67.9016 227.49 67.9828 228.055 67.8977C228.295 67.8616 228.549 67.7972 228.815 67.7045C229.096 67.5921 229.375 67.4625 229.651 67.3159L230.561 70.5706C230.156 70.7894 229.711 70.979 229.227 71.1395C228.745 71.3171 228.256 71.4433 227.759 71.5181C226.782 71.6651 225.906 71.6128 225.132 71.3612C224.373 71.0899 223.74 70.6153 223.235 69.9376C222.747 69.2573 222.419 68.3601 222.252 67.246Z" fill="black"/>
<path d="M236.735 62.8167C236.426 61.376 236.441 60.0788 236.779 58.9251C237.113 57.7545 237.712 56.7842 238.575 56.0143C239.451 55.2238 240.525 54.6924 241.796 54.4201C243.085 54.1442 244.282 54.189 245.388 54.5547C246.491 54.9034 247.435 55.5433 248.219 56.4743C249 57.3883 249.545 58.5657 249.853 60.0063C250.158 61.43 250.144 62.7272 249.81 63.8978C249.472 65.0515 248.873 66.0218 248.013 66.8087C247.15 67.5786 246.075 68.1015 244.786 68.3774C243.515 68.6498 242.32 68.6134 241.2 68.2683C240.094 67.9026 239.15 67.2628 238.369 66.3487C237.585 65.4177 237.04 64.2403 236.735 62.8167ZM240.599 61.9888C240.792 62.8871 241.06 63.6008 241.404 64.1298C241.747 64.6589 242.152 65.0154 242.617 65.1995C243.082 65.3835 243.585 65.4174 244.127 65.3012C244.67 65.185 245.115 64.9478 245.464 64.5895C245.813 64.2311 246.035 63.7402 246.132 63.1168C246.229 62.4933 246.181 61.7325 245.989 60.8342C245.797 59.9359 245.528 59.2222 245.185 58.6932C244.841 58.1641 244.437 57.8076 243.972 57.6235C243.503 57.4225 242.998 57.3801 242.455 57.4963C241.913 57.6125 241.469 57.8582 241.124 58.2335C240.776 58.5918 240.553 59.0827 240.456 59.7062C240.359 60.3296 240.407 61.0905 240.599 61.9888Z" fill="black"/>
<path d="M265.251 48.8211L269.305 47.5003L275.911 56.6965L276.821 59.4078L274.522 60.1568L265.251 48.8211ZM271.407 66.1212L270.828 63.0011C271.08 62.9919 271.319 62.9688 271.544 62.932C271.774 62.9116 271.996 62.8665 272.21 62.7967C272.606 62.6679 272.939 62.4865 273.209 62.2527C273.479 62.0188 273.687 61.6502 273.833 61.1469C273.996 60.6383 274.099 59.9209 274.144 58.9949L274.526 57.1475L274.398 45.8412L278.353 44.5526L277.538 59.1742C277.47 60.3632 277.315 61.3981 277.073 62.279C276.848 63.1545 276.465 63.8809 275.924 64.4583C275.404 65.0467 274.659 65.4993 273.686 65.8161C273.34 65.9288 272.956 66.0085 272.534 66.0549C272.133 66.1125 271.757 66.1346 271.407 66.1212Z" fill="black"/>
<path d="M286.039 49.0463C285.493 47.678 285.289 46.3968 285.428 45.2027C285.561 43.9926 285.988 42.9355 286.71 42.0315C287.441 41.105 288.41 40.4007 289.618 39.9187C290.841 39.4302 292.029 39.2732 293.181 39.4478C294.327 39.6062 295.365 40.0784 296.294 40.8644C297.218 41.6342 297.952 42.7033 298.499 44.0716C299.039 45.4238 299.242 46.705 299.109 47.9152C298.97 49.1092 298.543 50.1663 297.828 51.0864C297.106 51.9904 296.134 52.6866 294.911 53.1751C293.703 53.6571 292.519 53.8222 291.357 53.6701C290.205 53.4956 289.167 53.0234 288.244 52.2535C287.314 51.4676 286.579 50.3985 286.039 49.0463ZM289.709 47.5809C290.05 48.4341 290.434 49.0925 290.862 49.5563C291.29 50.0201 291.748 50.3036 292.238 50.4069C292.727 50.5102 293.229 50.459 293.744 50.2534C294.259 50.0477 294.658 49.739 294.942 49.3272C295.225 48.9153 295.363 48.394 295.353 47.7631C295.344 47.1322 295.169 46.3902 294.829 45.537C294.488 44.6839 294.104 44.0254 293.676 43.5616C293.248 43.0978 292.79 42.8143 292.3 42.711C291.805 42.5916 291.299 42.6347 290.784 42.8404C290.269 43.0461 289.873 43.3629 289.596 43.7908C289.312 44.2026 289.175 44.7239 289.185 45.3548C289.194 45.9857 289.369 46.7277 289.709 47.5809Z" fill="black"/>
<path d="M306.632 42.2896L302.948 34.6562L306.46 32.9609L309.885 40.0558C310.254 40.8207 310.708 41.3038 311.248 41.5052C311.796 41.6834 312.375 41.6256 312.983 41.3317C313.452 41.1057 313.859 40.7742 314.207 40.3371C314.569 39.8925 314.825 39.3651 314.973 38.7547L316.092 41.0728C315.924 41.962 315.622 42.7718 315.186 43.5022C314.742 44.2169 314.098 44.7778 313.255 45.1846C312.537 45.5312 311.764 45.6832 310.935 45.6406C310.114 45.5749 309.323 45.2731 308.563 44.7353C307.803 44.1975 307.16 43.3823 306.632 42.2896ZM317.123 42.9711L315.548 40.8443L310.745 30.8928L314.258 29.1975L318.778 38.5637C318.936 38.8915 319.087 39.1843 319.231 39.4421C319.383 39.6768 319.573 39.9508 319.801 40.2641L320.542 41.3211L317.123 42.9711Z" fill="black"/>
<path d="M327.065 35.4892C326.729 34.8829 326.648 34.2734 326.824 33.6607C327.015 33.0396 327.421 32.5566 328.042 32.2119C328.663 31.8671 329.281 31.7825 329.893 31.9579C330.521 32.125 331.003 32.5117 331.34 33.1179C331.668 33.7091 331.74 34.3228 331.558 34.959C331.383 35.5718 330.984 36.0505 330.363 36.3952C329.741 36.74 329.117 36.8288 328.489 36.6618C327.868 36.4712 327.393 36.0803 327.065 35.4892Z" fill="black"/>
<path d="M338.365 29.0432C338.003 28.4517 337.897 27.8461 338.046 27.2266C338.211 26.598 338.596 26.0983 339.202 25.7276C339.809 25.357 340.422 25.2464 341.041 25.3958C341.676 25.5362 342.174 25.9022 342.535 26.4938C342.888 27.0705 342.986 27.6806 342.831 28.324C342.682 28.9436 342.304 29.4387 341.698 29.8094C341.091 30.18 340.471 30.2952 339.837 30.1548C339.208 29.9905 338.717 29.62 338.365 29.0432Z" fill="black"/>
<path d="M349.382 22.1262C348.996 21.5505 348.865 20.9499 348.988 20.3246C349.125 19.6896 349.489 19.1742 350.079 18.7782C350.669 18.3823 351.277 18.2459 351.903 18.3691C352.542 18.4826 353.055 18.8273 353.441 19.403C353.818 19.9644 353.942 20.5698 353.815 21.2192C353.691 21.8445 353.335 22.3551 352.745 22.751C352.154 23.147 351.539 23.2882 350.9 23.1746C350.265 23.0371 349.759 22.6876 349.382 22.1262Z" fill="black"/>
</svg>
